<?xml version="1.0" standalone="no"?>
<!DOCTYPE svg PUBLIC "-//W3C//DTD SVG 20010904//EN"
 "http://www.w3.org/TR/2001/REC-SVG-20010904/DTD/svg10.dtd">
<svg version="1.0" xmlns="http://www.w3.org/2000/svg"
 width="25.000000pt" height="25.000000pt" viewBox="0 0 25.000000 25.000000"
 preserveAspectRatio="xMidYMid meet">

<g transform="translate(0.000000,25.000000) scale(0.100000,-0.100000)"
fill="#000000" stroke="none">
<path d="M33 154 c-4 -11 2 -23 18 -35 l24 -18 -25 -10 c-25 -10 -25 -10 -2
-10 32 -1 41 29 14 47 -27 17 -28 29 -4 35 16 4 16 5 -1 6 -10 0 -20 -6 -24
-15z"/>
<path d="M93 132 c20 -67 26 -65 52 17 4 14 3 21 -3 17 -5 -3 -13 -20 -17 -38
l-7 -33 -11 32 c-18 47 -27 51 -14 5z"/>
<path d="M172 158 c-27 -27 -7 -78 30 -78 11 0 18 7 18 20 0 11 -4 20 -10 20
-5 0 -7 -7 -3 -16 4 -12 1 -15 -13 -12 -14 2 -19 12 -19 33 0 23 6 31 25 36
21 6 22 7 5 8 -12 1 -26 -4 -33 -11z"/>
</g>
</svg>
